G04 #@! TF.GenerationSoftware,KiCad,Pcbnew,(5.1.5)-3*
G04 #@! TF.CreationDate,2020-02-02T10:17:26+01:00*
G04 #@! TF.ProjectId,shield,73686965-6c64-42e6-9b69-6361645f7063,rev?*
G04 #@! TF.SameCoordinates,Original*
G04 #@! TF.FileFunction,Legend,Bot*
G04 #@! TF.FilePolarity,Positive*
%FSLAX46Y46*%
G04 Gerber Fmt 4.6, Leading zero omitted, Abs format (unit mm)*
G04 Created by KiCad (PCBNEW (5.1.5)-3) date 2020-02-02 10:17:26*
%MOMM*%
%LPD*%
G04 APERTURE LIST*
%ADD10C,0.120000*%
%ADD11C,0.150000*%
G04 APERTURE END LIST*
D10*
X74368922Y-159310000D02*
X74886078Y-159310000D01*
X74368922Y-160730000D02*
X74886078Y-160730000D01*
X74368922Y-164390000D02*
X74886078Y-164390000D01*
X74368922Y-165810000D02*
X74886078Y-165810000D01*
X74886078Y-163905000D02*
X74368922Y-163905000D01*
X74886078Y-162485000D02*
X74368922Y-162485000D01*
X74886078Y-167715000D02*
X74368922Y-167715000D01*
X74886078Y-166295000D02*
X74368922Y-166295000D01*
X50240000Y-145458922D02*
X50240000Y-145976078D01*
X48820000Y-145458922D02*
X48820000Y-145976078D01*
X50541422Y-148515000D02*
X51058578Y-148515000D01*
X50541422Y-149935000D02*
X51058578Y-149935000D01*
X51360000Y-145976078D02*
X51360000Y-145458922D01*
X52780000Y-145976078D02*
X52780000Y-145458922D01*
X79450000Y-53081422D02*
X79450000Y-53598578D01*
X78030000Y-53081422D02*
X78030000Y-53598578D01*
X73735000Y-53081422D02*
X73735000Y-53598578D01*
X72315000Y-53081422D02*
X72315000Y-53598578D01*
X86101422Y-49455000D02*
X86618578Y-49455000D01*
X86101422Y-50875000D02*
X86618578Y-50875000D01*
X70441078Y-118820000D02*
X69923922Y-118820000D01*
X70441078Y-117400000D02*
X69923922Y-117400000D01*
X70441078Y-111200000D02*
X69923922Y-111200000D01*
X70441078Y-109780000D02*
X69923922Y-109780000D01*
X70441078Y-103580000D02*
X69923922Y-103580000D01*
X70441078Y-102160000D02*
X69923922Y-102160000D01*
X70441078Y-95960000D02*
X69923922Y-95960000D01*
X70441078Y-94540000D02*
X69923922Y-94540000D01*
X70441078Y-88340000D02*
X69923922Y-88340000D01*
X70441078Y-86920000D02*
X69923922Y-86920000D01*
X70441078Y-80720000D02*
X69923922Y-80720000D01*
X70441078Y-79300000D02*
X69923922Y-79300000D01*
X70441078Y-73100000D02*
X69923922Y-73100000D01*
X70441078Y-71680000D02*
X69923922Y-71680000D01*
X70441078Y-65480000D02*
X69923922Y-65480000D01*
X70441078Y-64060000D02*
X69923922Y-64060000D01*
X72315000Y-149181078D02*
X72315000Y-148663922D01*
X73735000Y-149181078D02*
X73735000Y-148663922D01*
X60916078Y-150570000D02*
X60398922Y-150570000D01*
X60916078Y-149150000D02*
X60398922Y-149150000D01*
X72315000Y-140926078D02*
X72315000Y-140408922D01*
X73735000Y-140926078D02*
X73735000Y-140408922D01*
X60916078Y-141680000D02*
X60398922Y-141680000D01*
X60916078Y-140260000D02*
X60398922Y-140260000D01*
X72315000Y-131401078D02*
X72315000Y-130883922D01*
X73735000Y-131401078D02*
X73735000Y-130883922D01*
X59010000Y-133276078D02*
X59010000Y-132758922D01*
X60430000Y-133276078D02*
X60430000Y-132758922D01*
X72346078Y-123900000D02*
X71828922Y-123900000D01*
X72346078Y-122480000D02*
X71828922Y-122480000D01*
X58345000Y-125686078D02*
X58345000Y-125168922D01*
X59765000Y-125686078D02*
X59765000Y-125168922D01*
X66113922Y-117400000D02*
X66631078Y-117400000D01*
X66113922Y-118820000D02*
X66631078Y-118820000D01*
X66113922Y-109780000D02*
X66631078Y-109780000D01*
X66113922Y-111200000D02*
X66631078Y-111200000D01*
X66113922Y-102160000D02*
X66631078Y-102160000D01*
X66113922Y-103580000D02*
X66631078Y-103580000D01*
X66113922Y-94540000D02*
X66631078Y-94540000D01*
X66113922Y-95960000D02*
X66631078Y-95960000D01*
X59011078Y-116280000D02*
X58493922Y-116280000D01*
X59011078Y-114860000D02*
X58493922Y-114860000D01*
X59011078Y-107390000D02*
X58493922Y-107390000D01*
X59011078Y-105970000D02*
X58493922Y-105970000D01*
X57741078Y-103580000D02*
X57223922Y-103580000D01*
X57741078Y-102160000D02*
X57223922Y-102160000D01*
X59011078Y-92150000D02*
X58493922Y-92150000D01*
X59011078Y-90730000D02*
X58493922Y-90730000D01*
X66113922Y-86920000D02*
X66631078Y-86920000D01*
X66113922Y-88340000D02*
X66631078Y-88340000D01*
X66113922Y-79300000D02*
X66631078Y-79300000D01*
X66113922Y-80720000D02*
X66631078Y-80720000D01*
X66113922Y-71680000D02*
X66631078Y-71680000D01*
X66113922Y-73100000D02*
X66631078Y-73100000D01*
X66113922Y-64060000D02*
X66631078Y-64060000D01*
X66113922Y-65480000D02*
X66631078Y-65480000D01*
X59011078Y-84530000D02*
X58493922Y-84530000D01*
X59011078Y-83110000D02*
X58493922Y-83110000D01*
X59011078Y-76910000D02*
X58493922Y-76910000D01*
X59011078Y-75490000D02*
X58493922Y-75490000D01*
X59011078Y-69290000D02*
X58493922Y-69290000D01*
X59011078Y-67870000D02*
X58493922Y-67870000D01*
X59011078Y-61670000D02*
X58493922Y-61670000D01*
X59011078Y-60250000D02*
X58493922Y-60250000D01*
X88825000Y-153293578D02*
X88825000Y-152776422D01*
X90245000Y-153293578D02*
X90245000Y-152776422D01*
X88825000Y-140593578D02*
X88825000Y-140076422D01*
X90245000Y-140593578D02*
X90245000Y-140076422D01*
X88825000Y-127893578D02*
X88825000Y-127376422D01*
X90245000Y-127893578D02*
X90245000Y-127376422D01*
X99103922Y-153595000D02*
X99621078Y-153595000D01*
X99103922Y-155015000D02*
X99621078Y-155015000D01*
X99103922Y-140895000D02*
X99621078Y-140895000D01*
X99103922Y-142315000D02*
X99621078Y-142315000D01*
X99103922Y-128195000D02*
X99621078Y-128195000D01*
X99103922Y-129615000D02*
X99621078Y-129615000D01*
X88825000Y-115193578D02*
X88825000Y-114676422D01*
X90245000Y-115193578D02*
X90245000Y-114676422D01*
X88825000Y-102493578D02*
X88825000Y-101976422D01*
X90245000Y-102493578D02*
X90245000Y-101976422D01*
X88825000Y-89793578D02*
X88825000Y-89276422D01*
X90245000Y-89793578D02*
X90245000Y-89276422D01*
X88825000Y-77093578D02*
X88825000Y-76576422D01*
X90245000Y-77093578D02*
X90245000Y-76576422D01*
X88825000Y-64393578D02*
X88825000Y-63876422D01*
X90245000Y-64393578D02*
X90245000Y-63876422D01*
X99103922Y-115495000D02*
X99621078Y-115495000D01*
X99103922Y-116915000D02*
X99621078Y-116915000D01*
X99103922Y-102795000D02*
X99621078Y-102795000D01*
X99103922Y-104215000D02*
X99621078Y-104215000D01*
X99103922Y-90095000D02*
X99621078Y-90095000D01*
X99103922Y-91515000D02*
X99621078Y-91515000D01*
X99103922Y-77395000D02*
X99621078Y-77395000D01*
X99103922Y-78815000D02*
X99621078Y-78815000D01*
X99103922Y-64695000D02*
X99621078Y-64695000D01*
X99103922Y-66115000D02*
X99621078Y-66115000D01*
X90213922Y-156135000D02*
X90731078Y-156135000D01*
X90213922Y-157555000D02*
X90731078Y-157555000D01*
X90213922Y-143435000D02*
X90731078Y-143435000D01*
X90213922Y-144855000D02*
X90731078Y-144855000D01*
X90213922Y-130735000D02*
X90731078Y-130735000D01*
X90213922Y-132155000D02*
X90731078Y-132155000D01*
X90213922Y-118035000D02*
X90731078Y-118035000D01*
X90213922Y-119455000D02*
X90731078Y-119455000D01*
X90213922Y-105335000D02*
X90731078Y-105335000D01*
X90213922Y-106755000D02*
X90731078Y-106755000D01*
X90213922Y-92635000D02*
X90731078Y-92635000D01*
X90213922Y-94055000D02*
X90731078Y-94055000D01*
X90213922Y-79935000D02*
X90731078Y-79935000D01*
X90213922Y-81355000D02*
X90731078Y-81355000D01*
X90213922Y-67235000D02*
X90731078Y-67235000D01*
X90213922Y-68655000D02*
X90731078Y-68655000D01*
D11*
X78747857Y-160377142D02*
X78795476Y-160424761D01*
X78938333Y-160472380D01*
X79033571Y-160472380D01*
X79176428Y-160424761D01*
X79271666Y-160329523D01*
X79319285Y-160234285D01*
X79366904Y-160043809D01*
X79366904Y-159900952D01*
X79319285Y-159710476D01*
X79271666Y-159615238D01*
X79176428Y-159520000D01*
X79033571Y-159472380D01*
X78938333Y-159472380D01*
X78795476Y-159520000D01*
X78747857Y-159567619D01*
X77795476Y-160472380D02*
X78366904Y-160472380D01*
X78081190Y-160472380D02*
X78081190Y-159472380D01*
X78176428Y-159615238D01*
X78271666Y-159710476D01*
X78366904Y-159758095D01*
X76938333Y-159472380D02*
X77128809Y-159472380D01*
X77224047Y-159520000D01*
X77271666Y-159567619D01*
X77366904Y-159710476D01*
X77414523Y-159900952D01*
X77414523Y-160281904D01*
X77366904Y-160377142D01*
X77319285Y-160424761D01*
X77224047Y-160472380D01*
X77033571Y-160472380D01*
X76938333Y-160424761D01*
X76890714Y-160377142D01*
X76843095Y-160281904D01*
X76843095Y-160043809D01*
X76890714Y-159948571D01*
X76938333Y-159900952D01*
X77033571Y-159853333D01*
X77224047Y-159853333D01*
X77319285Y-159900952D01*
X77366904Y-159948571D01*
X77414523Y-160043809D01*
X78747857Y-165457142D02*
X78795476Y-165504761D01*
X78938333Y-165552380D01*
X79033571Y-165552380D01*
X79176428Y-165504761D01*
X79271666Y-165409523D01*
X79319285Y-165314285D01*
X79366904Y-165123809D01*
X79366904Y-164980952D01*
X79319285Y-164790476D01*
X79271666Y-164695238D01*
X79176428Y-164600000D01*
X79033571Y-164552380D01*
X78938333Y-164552380D01*
X78795476Y-164600000D01*
X78747857Y-164647619D01*
X77795476Y-165552380D02*
X78366904Y-165552380D01*
X78081190Y-165552380D02*
X78081190Y-164552380D01*
X78176428Y-164695238D01*
X78271666Y-164790476D01*
X78366904Y-164838095D01*
X76890714Y-164552380D02*
X77366904Y-164552380D01*
X77414523Y-165028571D01*
X77366904Y-164980952D01*
X77271666Y-164933333D01*
X77033571Y-164933333D01*
X76938333Y-164980952D01*
X76890714Y-165028571D01*
X76843095Y-165123809D01*
X76843095Y-165361904D01*
X76890714Y-165457142D01*
X76938333Y-165504761D01*
X77033571Y-165552380D01*
X77271666Y-165552380D01*
X77366904Y-165504761D01*
X77414523Y-165457142D01*
X78747857Y-163552142D02*
X78795476Y-163599761D01*
X78938333Y-163647380D01*
X79033571Y-163647380D01*
X79176428Y-163599761D01*
X79271666Y-163504523D01*
X79319285Y-163409285D01*
X79366904Y-163218809D01*
X79366904Y-163075952D01*
X79319285Y-162885476D01*
X79271666Y-162790238D01*
X79176428Y-162695000D01*
X79033571Y-162647380D01*
X78938333Y-162647380D01*
X78795476Y-162695000D01*
X78747857Y-162742619D01*
X77795476Y-163647380D02*
X78366904Y-163647380D01*
X78081190Y-163647380D02*
X78081190Y-162647380D01*
X78176428Y-162790238D01*
X78271666Y-162885476D01*
X78366904Y-162933095D01*
X76938333Y-162980714D02*
X76938333Y-163647380D01*
X77176428Y-162599761D02*
X77414523Y-163314047D01*
X76795476Y-163314047D01*
X78747857Y-167362142D02*
X78795476Y-167409761D01*
X78938333Y-167457380D01*
X79033571Y-167457380D01*
X79176428Y-167409761D01*
X79271666Y-167314523D01*
X79319285Y-167219285D01*
X79366904Y-167028809D01*
X79366904Y-166885952D01*
X79319285Y-166695476D01*
X79271666Y-166600238D01*
X79176428Y-166505000D01*
X79033571Y-166457380D01*
X78938333Y-166457380D01*
X78795476Y-166505000D01*
X78747857Y-166552619D01*
X77795476Y-167457380D02*
X78366904Y-167457380D01*
X78081190Y-167457380D02*
X78081190Y-166457380D01*
X78176428Y-166600238D01*
X78271666Y-166695476D01*
X78366904Y-166743095D01*
X77462142Y-166457380D02*
X76843095Y-166457380D01*
X77176428Y-166838333D01*
X77033571Y-166838333D01*
X76938333Y-166885952D01*
X76890714Y-166933571D01*
X76843095Y-167028809D01*
X76843095Y-167266904D01*
X76890714Y-167362142D01*
X76938333Y-167409761D01*
X77033571Y-167457380D01*
X77319285Y-167457380D01*
X77414523Y-167409761D01*
X77462142Y-167362142D01*
X48237142Y-145074642D02*
X48284761Y-145027023D01*
X48332380Y-144884166D01*
X48332380Y-144788928D01*
X48284761Y-144646071D01*
X48189523Y-144550833D01*
X48094285Y-144503214D01*
X47903809Y-144455595D01*
X47760952Y-144455595D01*
X47570476Y-144503214D01*
X47475238Y-144550833D01*
X47380000Y-144646071D01*
X47332380Y-144788928D01*
X47332380Y-144884166D01*
X47380000Y-145027023D01*
X47427619Y-145074642D01*
X48332380Y-146027023D02*
X48332380Y-145455595D01*
X48332380Y-145741309D02*
X47332380Y-145741309D01*
X47475238Y-145646071D01*
X47570476Y-145550833D01*
X47618095Y-145455595D01*
X47427619Y-146407976D02*
X47380000Y-146455595D01*
X47332380Y-146550833D01*
X47332380Y-146788928D01*
X47380000Y-146884166D01*
X47427619Y-146931785D01*
X47522857Y-146979404D01*
X47618095Y-146979404D01*
X47760952Y-146931785D01*
X48332380Y-146360357D01*
X48332380Y-146979404D01*
X51157142Y-151035000D02*
X51204761Y-150987380D01*
X51252380Y-150844523D01*
X51252380Y-150749285D01*
X51204761Y-150606428D01*
X51109523Y-150511190D01*
X51014285Y-150463571D01*
X50823809Y-150415952D01*
X50680952Y-150415952D01*
X50490476Y-150463571D01*
X50395238Y-150511190D01*
X50300000Y-150606428D01*
X50252380Y-150749285D01*
X50252380Y-150844523D01*
X50300000Y-150987380D01*
X50347619Y-151035000D01*
X50966666Y-151415952D02*
X50966666Y-151892142D01*
X51252380Y-151320714D02*
X50252380Y-151654047D01*
X51252380Y-151987380D01*
X51252380Y-152320714D02*
X50252380Y-152320714D01*
X51252380Y-152892142D01*
X50252380Y-152892142D01*
X51347619Y-153130238D02*
X51347619Y-153892142D01*
X51252380Y-154701666D02*
X50776190Y-154368333D01*
X51252380Y-154130238D02*
X50252380Y-154130238D01*
X50252380Y-154511190D01*
X50300000Y-154606428D01*
X50347619Y-154654047D01*
X50442857Y-154701666D01*
X50585714Y-154701666D01*
X50680952Y-154654047D01*
X50728571Y-154606428D01*
X50776190Y-154511190D01*
X50776190Y-154130238D01*
X50252380Y-155035000D02*
X50252380Y-155654047D01*
X50633333Y-155320714D01*
X50633333Y-155463571D01*
X50680952Y-155558809D01*
X50728571Y-155606428D01*
X50823809Y-155654047D01*
X51061904Y-155654047D01*
X51157142Y-155606428D01*
X51204761Y-155558809D01*
X51252380Y-155463571D01*
X51252380Y-155177857D01*
X51204761Y-155082619D01*
X51157142Y-155035000D01*
X52427142Y-138970000D02*
X52474761Y-138922380D01*
X52522380Y-138779523D01*
X52522380Y-138684285D01*
X52474761Y-138541428D01*
X52379523Y-138446190D01*
X52284285Y-138398571D01*
X52093809Y-138350952D01*
X51950952Y-138350952D01*
X51760476Y-138398571D01*
X51665238Y-138446190D01*
X51570000Y-138541428D01*
X51522380Y-138684285D01*
X51522380Y-138779523D01*
X51570000Y-138922380D01*
X51617619Y-138970000D01*
X52236666Y-139350952D02*
X52236666Y-139827142D01*
X52522380Y-139255714D02*
X51522380Y-139589047D01*
X52522380Y-139922380D01*
X52522380Y-140255714D02*
X51522380Y-140255714D01*
X52522380Y-140827142D01*
X51522380Y-140827142D01*
X52617619Y-141065238D02*
X52617619Y-141827142D01*
X52522380Y-142636666D02*
X52046190Y-142303333D01*
X52522380Y-142065238D02*
X51522380Y-142065238D01*
X51522380Y-142446190D01*
X51570000Y-142541428D01*
X51617619Y-142589047D01*
X51712857Y-142636666D01*
X51855714Y-142636666D01*
X51950952Y-142589047D01*
X51998571Y-142541428D01*
X52046190Y-142446190D01*
X52046190Y-142065238D01*
X51617619Y-143017619D02*
X51570000Y-143065238D01*
X51522380Y-143160476D01*
X51522380Y-143398571D01*
X51570000Y-143493809D01*
X51617619Y-143541428D01*
X51712857Y-143589047D01*
X51808095Y-143589047D01*
X51950952Y-143541428D01*
X52522380Y-142970000D01*
X52522380Y-143589047D01*
X79382857Y-51252380D02*
X79716190Y-50776190D01*
X79954285Y-51252380D02*
X79954285Y-50252380D01*
X79573333Y-50252380D01*
X79478095Y-50300000D01*
X79430476Y-50347619D01*
X79382857Y-50442857D01*
X79382857Y-50585714D01*
X79430476Y-50680952D01*
X79478095Y-50728571D01*
X79573333Y-50776190D01*
X79954285Y-50776190D01*
X78478095Y-50252380D02*
X78954285Y-50252380D01*
X79001904Y-50728571D01*
X78954285Y-50680952D01*
X78859047Y-50633333D01*
X78620952Y-50633333D01*
X78525714Y-50680952D01*
X78478095Y-50728571D01*
X78430476Y-50823809D01*
X78430476Y-51061904D01*
X78478095Y-51157142D01*
X78525714Y-51204761D01*
X78620952Y-51252380D01*
X78859047Y-51252380D01*
X78954285Y-51204761D01*
X79001904Y-51157142D01*
X77573333Y-50585714D02*
X77573333Y-51252380D01*
X77811428Y-50204761D02*
X78049523Y-50919047D01*
X77430476Y-50919047D01*
X73667857Y-51252380D02*
X74001190Y-50776190D01*
X74239285Y-51252380D02*
X74239285Y-50252380D01*
X73858333Y-50252380D01*
X73763095Y-50300000D01*
X73715476Y-50347619D01*
X73667857Y-50442857D01*
X73667857Y-50585714D01*
X73715476Y-50680952D01*
X73763095Y-50728571D01*
X73858333Y-50776190D01*
X74239285Y-50776190D01*
X72763095Y-50252380D02*
X73239285Y-50252380D01*
X73286904Y-50728571D01*
X73239285Y-50680952D01*
X73144047Y-50633333D01*
X72905952Y-50633333D01*
X72810714Y-50680952D01*
X72763095Y-50728571D01*
X72715476Y-50823809D01*
X72715476Y-51061904D01*
X72763095Y-51157142D01*
X72810714Y-51204761D01*
X72905952Y-51252380D01*
X73144047Y-51252380D01*
X73239285Y-51204761D01*
X73286904Y-51157142D01*
X72382142Y-50252380D02*
X71763095Y-50252380D01*
X72096428Y-50633333D01*
X71953571Y-50633333D01*
X71858333Y-50680952D01*
X71810714Y-50728571D01*
X71763095Y-50823809D01*
X71763095Y-51061904D01*
X71810714Y-51157142D01*
X71858333Y-51204761D01*
X71953571Y-51252380D01*
X72239285Y-51252380D01*
X72334523Y-51204761D01*
X72382142Y-51157142D01*
X87002857Y-48617142D02*
X87050476Y-48664761D01*
X87193333Y-48712380D01*
X87288571Y-48712380D01*
X87431428Y-48664761D01*
X87526666Y-48569523D01*
X87574285Y-48474285D01*
X87621904Y-48283809D01*
X87621904Y-48140952D01*
X87574285Y-47950476D01*
X87526666Y-47855238D01*
X87431428Y-47760000D01*
X87288571Y-47712380D01*
X87193333Y-47712380D01*
X87050476Y-47760000D01*
X87002857Y-47807619D01*
X86050476Y-48712380D02*
X86621904Y-48712380D01*
X86336190Y-48712380D02*
X86336190Y-47712380D01*
X86431428Y-47855238D01*
X86526666Y-47950476D01*
X86621904Y-47998095D01*
X85098095Y-48712380D02*
X85669523Y-48712380D01*
X85383809Y-48712380D02*
X85383809Y-47712380D01*
X85479047Y-47855238D01*
X85574285Y-47950476D01*
X85669523Y-47998095D01*
X70825357Y-116912380D02*
X71158690Y-116436190D01*
X71396785Y-116912380D02*
X71396785Y-115912380D01*
X71015833Y-115912380D01*
X70920595Y-115960000D01*
X70872976Y-116007619D01*
X70825357Y-116102857D01*
X70825357Y-116245714D01*
X70872976Y-116340952D01*
X70920595Y-116388571D01*
X71015833Y-116436190D01*
X71396785Y-116436190D01*
X69968214Y-116245714D02*
X69968214Y-116912380D01*
X70206309Y-115864761D02*
X70444404Y-116579047D01*
X69825357Y-116579047D01*
X69301547Y-116340952D02*
X69396785Y-116293333D01*
X69444404Y-116245714D01*
X69492023Y-116150476D01*
X69492023Y-116102857D01*
X69444404Y-116007619D01*
X69396785Y-115960000D01*
X69301547Y-115912380D01*
X69111071Y-115912380D01*
X69015833Y-115960000D01*
X68968214Y-116007619D01*
X68920595Y-116102857D01*
X68920595Y-116150476D01*
X68968214Y-116245714D01*
X69015833Y-116293333D01*
X69111071Y-116340952D01*
X69301547Y-116340952D01*
X69396785Y-116388571D01*
X69444404Y-116436190D01*
X69492023Y-116531428D01*
X69492023Y-116721904D01*
X69444404Y-116817142D01*
X69396785Y-116864761D01*
X69301547Y-116912380D01*
X69111071Y-116912380D01*
X69015833Y-116864761D01*
X68968214Y-116817142D01*
X68920595Y-116721904D01*
X68920595Y-116531428D01*
X68968214Y-116436190D01*
X69015833Y-116388571D01*
X69111071Y-116340952D01*
X70825357Y-109292380D02*
X71158690Y-108816190D01*
X71396785Y-109292380D02*
X71396785Y-108292380D01*
X71015833Y-108292380D01*
X70920595Y-108340000D01*
X70872976Y-108387619D01*
X70825357Y-108482857D01*
X70825357Y-108625714D01*
X70872976Y-108720952D01*
X70920595Y-108768571D01*
X71015833Y-108816190D01*
X71396785Y-108816190D01*
X69968214Y-108625714D02*
X69968214Y-109292380D01*
X70206309Y-108244761D02*
X70444404Y-108959047D01*
X69825357Y-108959047D01*
X69539642Y-108292380D02*
X68872976Y-108292380D01*
X69301547Y-109292380D01*
X70825357Y-101672380D02*
X71158690Y-101196190D01*
X71396785Y-101672380D02*
X71396785Y-100672380D01*
X71015833Y-100672380D01*
X70920595Y-100720000D01*
X70872976Y-100767619D01*
X70825357Y-100862857D01*
X70825357Y-101005714D01*
X70872976Y-101100952D01*
X70920595Y-101148571D01*
X71015833Y-101196190D01*
X71396785Y-101196190D01*
X69968214Y-101005714D02*
X69968214Y-101672380D01*
X70206309Y-100624761D02*
X70444404Y-101339047D01*
X69825357Y-101339047D01*
X69015833Y-100672380D02*
X69206309Y-100672380D01*
X69301547Y-100720000D01*
X69349166Y-100767619D01*
X69444404Y-100910476D01*
X69492023Y-101100952D01*
X69492023Y-101481904D01*
X69444404Y-101577142D01*
X69396785Y-101624761D01*
X69301547Y-101672380D01*
X69111071Y-101672380D01*
X69015833Y-101624761D01*
X68968214Y-101577142D01*
X68920595Y-101481904D01*
X68920595Y-101243809D01*
X68968214Y-101148571D01*
X69015833Y-101100952D01*
X69111071Y-101053333D01*
X69301547Y-101053333D01*
X69396785Y-101100952D01*
X69444404Y-101148571D01*
X69492023Y-101243809D01*
X70825357Y-94052380D02*
X71158690Y-93576190D01*
X71396785Y-94052380D02*
X71396785Y-93052380D01*
X71015833Y-93052380D01*
X70920595Y-93100000D01*
X70872976Y-93147619D01*
X70825357Y-93242857D01*
X70825357Y-93385714D01*
X70872976Y-93480952D01*
X70920595Y-93528571D01*
X71015833Y-93576190D01*
X71396785Y-93576190D01*
X69968214Y-93385714D02*
X69968214Y-94052380D01*
X70206309Y-93004761D02*
X70444404Y-93719047D01*
X69825357Y-93719047D01*
X68968214Y-93052380D02*
X69444404Y-93052380D01*
X69492023Y-93528571D01*
X69444404Y-93480952D01*
X69349166Y-93433333D01*
X69111071Y-93433333D01*
X69015833Y-93480952D01*
X68968214Y-93528571D01*
X68920595Y-93623809D01*
X68920595Y-93861904D01*
X68968214Y-93957142D01*
X69015833Y-94004761D01*
X69111071Y-94052380D01*
X69349166Y-94052380D01*
X69444404Y-94004761D01*
X69492023Y-93957142D01*
X70825357Y-86432380D02*
X71158690Y-85956190D01*
X71396785Y-86432380D02*
X71396785Y-85432380D01*
X71015833Y-85432380D01*
X70920595Y-85480000D01*
X70872976Y-85527619D01*
X70825357Y-85622857D01*
X70825357Y-85765714D01*
X70872976Y-85860952D01*
X70920595Y-85908571D01*
X71015833Y-85956190D01*
X71396785Y-85956190D01*
X69968214Y-85765714D02*
X69968214Y-86432380D01*
X70206309Y-85384761D02*
X70444404Y-86099047D01*
X69825357Y-86099047D01*
X69015833Y-85765714D02*
X69015833Y-86432380D01*
X69253928Y-85384761D02*
X69492023Y-86099047D01*
X68872976Y-86099047D01*
X70825357Y-78812380D02*
X71158690Y-78336190D01*
X71396785Y-78812380D02*
X71396785Y-77812380D01*
X71015833Y-77812380D01*
X70920595Y-77860000D01*
X70872976Y-77907619D01*
X70825357Y-78002857D01*
X70825357Y-78145714D01*
X70872976Y-78240952D01*
X70920595Y-78288571D01*
X71015833Y-78336190D01*
X71396785Y-78336190D01*
X69968214Y-78145714D02*
X69968214Y-78812380D01*
X70206309Y-77764761D02*
X70444404Y-78479047D01*
X69825357Y-78479047D01*
X69539642Y-77812380D02*
X68920595Y-77812380D01*
X69253928Y-78193333D01*
X69111071Y-78193333D01*
X69015833Y-78240952D01*
X68968214Y-78288571D01*
X68920595Y-78383809D01*
X68920595Y-78621904D01*
X68968214Y-78717142D01*
X69015833Y-78764761D01*
X69111071Y-78812380D01*
X69396785Y-78812380D01*
X69492023Y-78764761D01*
X69539642Y-78717142D01*
X70825357Y-71192380D02*
X71158690Y-70716190D01*
X71396785Y-71192380D02*
X71396785Y-70192380D01*
X71015833Y-70192380D01*
X70920595Y-70240000D01*
X70872976Y-70287619D01*
X70825357Y-70382857D01*
X70825357Y-70525714D01*
X70872976Y-70620952D01*
X70920595Y-70668571D01*
X71015833Y-70716190D01*
X71396785Y-70716190D01*
X69968214Y-70525714D02*
X69968214Y-71192380D01*
X70206309Y-70144761D02*
X70444404Y-70859047D01*
X69825357Y-70859047D01*
X69492023Y-70287619D02*
X69444404Y-70240000D01*
X69349166Y-70192380D01*
X69111071Y-70192380D01*
X69015833Y-70240000D01*
X68968214Y-70287619D01*
X68920595Y-70382857D01*
X68920595Y-70478095D01*
X68968214Y-70620952D01*
X69539642Y-71192380D01*
X68920595Y-71192380D01*
X70825357Y-63572380D02*
X71158690Y-63096190D01*
X71396785Y-63572380D02*
X71396785Y-62572380D01*
X71015833Y-62572380D01*
X70920595Y-62620000D01*
X70872976Y-62667619D01*
X70825357Y-62762857D01*
X70825357Y-62905714D01*
X70872976Y-63000952D01*
X70920595Y-63048571D01*
X71015833Y-63096190D01*
X71396785Y-63096190D01*
X69968214Y-62905714D02*
X69968214Y-63572380D01*
X70206309Y-62524761D02*
X70444404Y-63239047D01*
X69825357Y-63239047D01*
X68920595Y-63572380D02*
X69492023Y-63572380D01*
X69206309Y-63572380D02*
X69206309Y-62572380D01*
X69301547Y-62715238D01*
X69396785Y-62810476D01*
X69492023Y-62858095D01*
X75127380Y-148279642D02*
X74651190Y-147946309D01*
X75127380Y-147708214D02*
X74127380Y-147708214D01*
X74127380Y-148089166D01*
X74175000Y-148184404D01*
X74222619Y-148232023D01*
X74317857Y-148279642D01*
X74460714Y-148279642D01*
X74555952Y-148232023D01*
X74603571Y-148184404D01*
X74651190Y-148089166D01*
X74651190Y-147708214D01*
X74460714Y-149136785D02*
X75127380Y-149136785D01*
X74079761Y-148898690D02*
X74794047Y-148660595D01*
X74794047Y-149279642D01*
X74127380Y-149851071D02*
X74127380Y-149946309D01*
X74175000Y-150041547D01*
X74222619Y-150089166D01*
X74317857Y-150136785D01*
X74508333Y-150184404D01*
X74746428Y-150184404D01*
X74936904Y-150136785D01*
X75032142Y-150089166D01*
X75079761Y-150041547D01*
X75127380Y-149946309D01*
X75127380Y-149851071D01*
X75079761Y-149755833D01*
X75032142Y-149708214D01*
X74936904Y-149660595D01*
X74746428Y-149612976D01*
X74508333Y-149612976D01*
X74317857Y-149660595D01*
X74222619Y-149708214D01*
X74175000Y-149755833D01*
X74127380Y-149851071D01*
X61300357Y-148662380D02*
X61633690Y-148186190D01*
X61871785Y-148662380D02*
X61871785Y-147662380D01*
X61490833Y-147662380D01*
X61395595Y-147710000D01*
X61347976Y-147757619D01*
X61300357Y-147852857D01*
X61300357Y-147995714D01*
X61347976Y-148090952D01*
X61395595Y-148138571D01*
X61490833Y-148186190D01*
X61871785Y-148186190D01*
X60967023Y-147662380D02*
X60347976Y-147662380D01*
X60681309Y-148043333D01*
X60538452Y-148043333D01*
X60443214Y-148090952D01*
X60395595Y-148138571D01*
X60347976Y-148233809D01*
X60347976Y-148471904D01*
X60395595Y-148567142D01*
X60443214Y-148614761D01*
X60538452Y-148662380D01*
X60824166Y-148662380D01*
X60919404Y-148614761D01*
X60967023Y-148567142D01*
X59871785Y-148662380D02*
X59681309Y-148662380D01*
X59586071Y-148614761D01*
X59538452Y-148567142D01*
X59443214Y-148424285D01*
X59395595Y-148233809D01*
X59395595Y-147852857D01*
X59443214Y-147757619D01*
X59490833Y-147710000D01*
X59586071Y-147662380D01*
X59776547Y-147662380D01*
X59871785Y-147710000D01*
X59919404Y-147757619D01*
X59967023Y-147852857D01*
X59967023Y-148090952D01*
X59919404Y-148186190D01*
X59871785Y-148233809D01*
X59776547Y-148281428D01*
X59586071Y-148281428D01*
X59490833Y-148233809D01*
X59443214Y-148186190D01*
X59395595Y-148090952D01*
X75127380Y-140024642D02*
X74651190Y-139691309D01*
X75127380Y-139453214D02*
X74127380Y-139453214D01*
X74127380Y-139834166D01*
X74175000Y-139929404D01*
X74222619Y-139977023D01*
X74317857Y-140024642D01*
X74460714Y-140024642D01*
X74555952Y-139977023D01*
X74603571Y-139929404D01*
X74651190Y-139834166D01*
X74651190Y-139453214D01*
X74127380Y-140357976D02*
X74127380Y-140977023D01*
X74508333Y-140643690D01*
X74508333Y-140786547D01*
X74555952Y-140881785D01*
X74603571Y-140929404D01*
X74698809Y-140977023D01*
X74936904Y-140977023D01*
X75032142Y-140929404D01*
X75079761Y-140881785D01*
X75127380Y-140786547D01*
X75127380Y-140500833D01*
X75079761Y-140405595D01*
X75032142Y-140357976D01*
X74555952Y-141548452D02*
X74508333Y-141453214D01*
X74460714Y-141405595D01*
X74365476Y-141357976D01*
X74317857Y-141357976D01*
X74222619Y-141405595D01*
X74175000Y-141453214D01*
X74127380Y-141548452D01*
X74127380Y-141738928D01*
X74175000Y-141834166D01*
X74222619Y-141881785D01*
X74317857Y-141929404D01*
X74365476Y-141929404D01*
X74460714Y-141881785D01*
X74508333Y-141834166D01*
X74555952Y-141738928D01*
X74555952Y-141548452D01*
X74603571Y-141453214D01*
X74651190Y-141405595D01*
X74746428Y-141357976D01*
X74936904Y-141357976D01*
X75032142Y-141405595D01*
X75079761Y-141453214D01*
X75127380Y-141548452D01*
X75127380Y-141738928D01*
X75079761Y-141834166D01*
X75032142Y-141881785D01*
X74936904Y-141929404D01*
X74746428Y-141929404D01*
X74651190Y-141881785D01*
X74603571Y-141834166D01*
X74555952Y-141738928D01*
X61300357Y-139772380D02*
X61633690Y-139296190D01*
X61871785Y-139772380D02*
X61871785Y-138772380D01*
X61490833Y-138772380D01*
X61395595Y-138820000D01*
X61347976Y-138867619D01*
X61300357Y-138962857D01*
X61300357Y-139105714D01*
X61347976Y-139200952D01*
X61395595Y-139248571D01*
X61490833Y-139296190D01*
X61871785Y-139296190D01*
X60967023Y-138772380D02*
X60347976Y-138772380D01*
X60681309Y-139153333D01*
X60538452Y-139153333D01*
X60443214Y-139200952D01*
X60395595Y-139248571D01*
X60347976Y-139343809D01*
X60347976Y-139581904D01*
X60395595Y-139677142D01*
X60443214Y-139724761D01*
X60538452Y-139772380D01*
X60824166Y-139772380D01*
X60919404Y-139724761D01*
X60967023Y-139677142D01*
X60014642Y-138772380D02*
X59347976Y-138772380D01*
X59776547Y-139772380D01*
X75127380Y-130499642D02*
X74651190Y-130166309D01*
X75127380Y-129928214D02*
X74127380Y-129928214D01*
X74127380Y-130309166D01*
X74175000Y-130404404D01*
X74222619Y-130452023D01*
X74317857Y-130499642D01*
X74460714Y-130499642D01*
X74555952Y-130452023D01*
X74603571Y-130404404D01*
X74651190Y-130309166D01*
X74651190Y-129928214D01*
X74127380Y-130832976D02*
X74127380Y-131452023D01*
X74508333Y-131118690D01*
X74508333Y-131261547D01*
X74555952Y-131356785D01*
X74603571Y-131404404D01*
X74698809Y-131452023D01*
X74936904Y-131452023D01*
X75032142Y-131404404D01*
X75079761Y-131356785D01*
X75127380Y-131261547D01*
X75127380Y-130975833D01*
X75079761Y-130880595D01*
X75032142Y-130832976D01*
X74127380Y-132309166D02*
X74127380Y-132118690D01*
X74175000Y-132023452D01*
X74222619Y-131975833D01*
X74365476Y-131880595D01*
X74555952Y-131832976D01*
X74936904Y-131832976D01*
X75032142Y-131880595D01*
X75079761Y-131928214D01*
X75127380Y-132023452D01*
X75127380Y-132213928D01*
X75079761Y-132309166D01*
X75032142Y-132356785D01*
X74936904Y-132404404D01*
X74698809Y-132404404D01*
X74603571Y-132356785D01*
X74555952Y-132309166D01*
X74508333Y-132213928D01*
X74508333Y-132023452D01*
X74555952Y-131928214D01*
X74603571Y-131880595D01*
X74698809Y-131832976D01*
X60142380Y-128897142D02*
X59666190Y-128563809D01*
X60142380Y-128325714D02*
X59142380Y-128325714D01*
X59142380Y-128706666D01*
X59190000Y-128801904D01*
X59237619Y-128849523D01*
X59332857Y-128897142D01*
X59475714Y-128897142D01*
X59570952Y-128849523D01*
X59618571Y-128801904D01*
X59666190Y-128706666D01*
X59666190Y-128325714D01*
X59142380Y-129230476D02*
X59142380Y-129849523D01*
X59523333Y-129516190D01*
X59523333Y-129659047D01*
X59570952Y-129754285D01*
X59618571Y-129801904D01*
X59713809Y-129849523D01*
X59951904Y-129849523D01*
X60047142Y-129801904D01*
X60094761Y-129754285D01*
X60142380Y-129659047D01*
X60142380Y-129373333D01*
X60094761Y-129278095D01*
X60047142Y-129230476D01*
X59142380Y-130754285D02*
X59142380Y-130278095D01*
X59618571Y-130230476D01*
X59570952Y-130278095D01*
X59523333Y-130373333D01*
X59523333Y-130611428D01*
X59570952Y-130706666D01*
X59618571Y-130754285D01*
X59713809Y-130801904D01*
X59951904Y-130801904D01*
X60047142Y-130754285D01*
X60094761Y-130706666D01*
X60142380Y-130611428D01*
X60142380Y-130373333D01*
X60094761Y-130278095D01*
X60047142Y-130230476D01*
X72730357Y-121992380D02*
X73063690Y-121516190D01*
X73301785Y-121992380D02*
X73301785Y-120992380D01*
X72920833Y-120992380D01*
X72825595Y-121040000D01*
X72777976Y-121087619D01*
X72730357Y-121182857D01*
X72730357Y-121325714D01*
X72777976Y-121420952D01*
X72825595Y-121468571D01*
X72920833Y-121516190D01*
X73301785Y-121516190D01*
X72397023Y-120992380D02*
X71777976Y-120992380D01*
X72111309Y-121373333D01*
X71968452Y-121373333D01*
X71873214Y-121420952D01*
X71825595Y-121468571D01*
X71777976Y-121563809D01*
X71777976Y-121801904D01*
X71825595Y-121897142D01*
X71873214Y-121944761D01*
X71968452Y-121992380D01*
X72254166Y-121992380D01*
X72349404Y-121944761D01*
X72397023Y-121897142D01*
X70920833Y-121325714D02*
X70920833Y-121992380D01*
X71158928Y-120944761D02*
X71397023Y-121659047D01*
X70777976Y-121659047D01*
X59507380Y-121277142D02*
X59031190Y-120943809D01*
X59507380Y-120705714D02*
X58507380Y-120705714D01*
X58507380Y-121086666D01*
X58555000Y-121181904D01*
X58602619Y-121229523D01*
X58697857Y-121277142D01*
X58840714Y-121277142D01*
X58935952Y-121229523D01*
X58983571Y-121181904D01*
X59031190Y-121086666D01*
X59031190Y-120705714D01*
X58507380Y-121610476D02*
X58507380Y-122229523D01*
X58888333Y-121896190D01*
X58888333Y-122039047D01*
X58935952Y-122134285D01*
X58983571Y-122181904D01*
X59078809Y-122229523D01*
X59316904Y-122229523D01*
X59412142Y-122181904D01*
X59459761Y-122134285D01*
X59507380Y-122039047D01*
X59507380Y-121753333D01*
X59459761Y-121658095D01*
X59412142Y-121610476D01*
X58507380Y-122562857D02*
X58507380Y-123181904D01*
X58888333Y-122848571D01*
X58888333Y-122991428D01*
X58935952Y-123086666D01*
X58983571Y-123134285D01*
X59078809Y-123181904D01*
X59316904Y-123181904D01*
X59412142Y-123134285D01*
X59459761Y-123086666D01*
X59507380Y-122991428D01*
X59507380Y-122705714D01*
X59459761Y-122610476D01*
X59412142Y-122562857D01*
X67015357Y-120212380D02*
X67348690Y-119736190D01*
X67586785Y-120212380D02*
X67586785Y-119212380D01*
X67205833Y-119212380D01*
X67110595Y-119260000D01*
X67062976Y-119307619D01*
X67015357Y-119402857D01*
X67015357Y-119545714D01*
X67062976Y-119640952D01*
X67110595Y-119688571D01*
X67205833Y-119736190D01*
X67586785Y-119736190D01*
X66682023Y-119212380D02*
X66062976Y-119212380D01*
X66396309Y-119593333D01*
X66253452Y-119593333D01*
X66158214Y-119640952D01*
X66110595Y-119688571D01*
X66062976Y-119783809D01*
X66062976Y-120021904D01*
X66110595Y-120117142D01*
X66158214Y-120164761D01*
X66253452Y-120212380D01*
X66539166Y-120212380D01*
X66634404Y-120164761D01*
X66682023Y-120117142D01*
X65682023Y-119307619D02*
X65634404Y-119260000D01*
X65539166Y-119212380D01*
X65301071Y-119212380D01*
X65205833Y-119260000D01*
X65158214Y-119307619D01*
X65110595Y-119402857D01*
X65110595Y-119498095D01*
X65158214Y-119640952D01*
X65729642Y-120212380D01*
X65110595Y-120212380D01*
X67015357Y-112592380D02*
X67348690Y-112116190D01*
X67586785Y-112592380D02*
X67586785Y-111592380D01*
X67205833Y-111592380D01*
X67110595Y-111640000D01*
X67062976Y-111687619D01*
X67015357Y-111782857D01*
X67015357Y-111925714D01*
X67062976Y-112020952D01*
X67110595Y-112068571D01*
X67205833Y-112116190D01*
X67586785Y-112116190D01*
X66682023Y-111592380D02*
X66062976Y-111592380D01*
X66396309Y-111973333D01*
X66253452Y-111973333D01*
X66158214Y-112020952D01*
X66110595Y-112068571D01*
X66062976Y-112163809D01*
X66062976Y-112401904D01*
X66110595Y-112497142D01*
X66158214Y-112544761D01*
X66253452Y-112592380D01*
X66539166Y-112592380D01*
X66634404Y-112544761D01*
X66682023Y-112497142D01*
X65110595Y-112592380D02*
X65682023Y-112592380D01*
X65396309Y-112592380D02*
X65396309Y-111592380D01*
X65491547Y-111735238D01*
X65586785Y-111830476D01*
X65682023Y-111878095D01*
X67015357Y-104972380D02*
X67348690Y-104496190D01*
X67586785Y-104972380D02*
X67586785Y-103972380D01*
X67205833Y-103972380D01*
X67110595Y-104020000D01*
X67062976Y-104067619D01*
X67015357Y-104162857D01*
X67015357Y-104305714D01*
X67062976Y-104400952D01*
X67110595Y-104448571D01*
X67205833Y-104496190D01*
X67586785Y-104496190D01*
X66682023Y-103972380D02*
X66062976Y-103972380D01*
X66396309Y-104353333D01*
X66253452Y-104353333D01*
X66158214Y-104400952D01*
X66110595Y-104448571D01*
X66062976Y-104543809D01*
X66062976Y-104781904D01*
X66110595Y-104877142D01*
X66158214Y-104924761D01*
X66253452Y-104972380D01*
X66539166Y-104972380D01*
X66634404Y-104924761D01*
X66682023Y-104877142D01*
X65443928Y-103972380D02*
X65348690Y-103972380D01*
X65253452Y-104020000D01*
X65205833Y-104067619D01*
X65158214Y-104162857D01*
X65110595Y-104353333D01*
X65110595Y-104591428D01*
X65158214Y-104781904D01*
X65205833Y-104877142D01*
X65253452Y-104924761D01*
X65348690Y-104972380D01*
X65443928Y-104972380D01*
X65539166Y-104924761D01*
X65586785Y-104877142D01*
X65634404Y-104781904D01*
X65682023Y-104591428D01*
X65682023Y-104353333D01*
X65634404Y-104162857D01*
X65586785Y-104067619D01*
X65539166Y-104020000D01*
X65443928Y-103972380D01*
X67015357Y-97352380D02*
X67348690Y-96876190D01*
X67586785Y-97352380D02*
X67586785Y-96352380D01*
X67205833Y-96352380D01*
X67110595Y-96400000D01*
X67062976Y-96447619D01*
X67015357Y-96542857D01*
X67015357Y-96685714D01*
X67062976Y-96780952D01*
X67110595Y-96828571D01*
X67205833Y-96876190D01*
X67586785Y-96876190D01*
X66634404Y-96447619D02*
X66586785Y-96400000D01*
X66491547Y-96352380D01*
X66253452Y-96352380D01*
X66158214Y-96400000D01*
X66110595Y-96447619D01*
X66062976Y-96542857D01*
X66062976Y-96638095D01*
X66110595Y-96780952D01*
X66682023Y-97352380D01*
X66062976Y-97352380D01*
X65586785Y-97352380D02*
X65396309Y-97352380D01*
X65301071Y-97304761D01*
X65253452Y-97257142D01*
X65158214Y-97114285D01*
X65110595Y-96923809D01*
X65110595Y-96542857D01*
X65158214Y-96447619D01*
X65205833Y-96400000D01*
X65301071Y-96352380D01*
X65491547Y-96352380D01*
X65586785Y-96400000D01*
X65634404Y-96447619D01*
X65682023Y-96542857D01*
X65682023Y-96780952D01*
X65634404Y-96876190D01*
X65586785Y-96923809D01*
X65491547Y-96971428D01*
X65301071Y-96971428D01*
X65205833Y-96923809D01*
X65158214Y-96876190D01*
X65110595Y-96780952D01*
X59395357Y-114372380D02*
X59728690Y-113896190D01*
X59966785Y-114372380D02*
X59966785Y-113372380D01*
X59585833Y-113372380D01*
X59490595Y-113420000D01*
X59442976Y-113467619D01*
X59395357Y-113562857D01*
X59395357Y-113705714D01*
X59442976Y-113800952D01*
X59490595Y-113848571D01*
X59585833Y-113896190D01*
X59966785Y-113896190D01*
X59014404Y-113467619D02*
X58966785Y-113420000D01*
X58871547Y-113372380D01*
X58633452Y-113372380D01*
X58538214Y-113420000D01*
X58490595Y-113467619D01*
X58442976Y-113562857D01*
X58442976Y-113658095D01*
X58490595Y-113800952D01*
X59062023Y-114372380D01*
X58442976Y-114372380D01*
X57871547Y-113800952D02*
X57966785Y-113753333D01*
X58014404Y-113705714D01*
X58062023Y-113610476D01*
X58062023Y-113562857D01*
X58014404Y-113467619D01*
X57966785Y-113420000D01*
X57871547Y-113372380D01*
X57681071Y-113372380D01*
X57585833Y-113420000D01*
X57538214Y-113467619D01*
X57490595Y-113562857D01*
X57490595Y-113610476D01*
X57538214Y-113705714D01*
X57585833Y-113753333D01*
X57681071Y-113800952D01*
X57871547Y-113800952D01*
X57966785Y-113848571D01*
X58014404Y-113896190D01*
X58062023Y-113991428D01*
X58062023Y-114181904D01*
X58014404Y-114277142D01*
X57966785Y-114324761D01*
X57871547Y-114372380D01*
X57681071Y-114372380D01*
X57585833Y-114324761D01*
X57538214Y-114277142D01*
X57490595Y-114181904D01*
X57490595Y-113991428D01*
X57538214Y-113896190D01*
X57585833Y-113848571D01*
X57681071Y-113800952D01*
X59395357Y-105482380D02*
X59728690Y-105006190D01*
X59966785Y-105482380D02*
X59966785Y-104482380D01*
X59585833Y-104482380D01*
X59490595Y-104530000D01*
X59442976Y-104577619D01*
X59395357Y-104672857D01*
X59395357Y-104815714D01*
X59442976Y-104910952D01*
X59490595Y-104958571D01*
X59585833Y-105006190D01*
X59966785Y-105006190D01*
X59014404Y-104577619D02*
X58966785Y-104530000D01*
X58871547Y-104482380D01*
X58633452Y-104482380D01*
X58538214Y-104530000D01*
X58490595Y-104577619D01*
X58442976Y-104672857D01*
X58442976Y-104768095D01*
X58490595Y-104910952D01*
X59062023Y-105482380D01*
X58442976Y-105482380D01*
X58109642Y-104482380D02*
X57442976Y-104482380D01*
X57871547Y-105482380D01*
X58125357Y-101672380D02*
X58458690Y-101196190D01*
X58696785Y-101672380D02*
X58696785Y-100672380D01*
X58315833Y-100672380D01*
X58220595Y-100720000D01*
X58172976Y-100767619D01*
X58125357Y-100862857D01*
X58125357Y-101005714D01*
X58172976Y-101100952D01*
X58220595Y-101148571D01*
X58315833Y-101196190D01*
X58696785Y-101196190D01*
X57744404Y-100767619D02*
X57696785Y-100720000D01*
X57601547Y-100672380D01*
X57363452Y-100672380D01*
X57268214Y-100720000D01*
X57220595Y-100767619D01*
X57172976Y-100862857D01*
X57172976Y-100958095D01*
X57220595Y-101100952D01*
X57792023Y-101672380D01*
X57172976Y-101672380D01*
X56315833Y-100672380D02*
X56506309Y-100672380D01*
X56601547Y-100720000D01*
X56649166Y-100767619D01*
X56744404Y-100910476D01*
X56792023Y-101100952D01*
X56792023Y-101481904D01*
X56744404Y-101577142D01*
X56696785Y-101624761D01*
X56601547Y-101672380D01*
X56411071Y-101672380D01*
X56315833Y-101624761D01*
X56268214Y-101577142D01*
X56220595Y-101481904D01*
X56220595Y-101243809D01*
X56268214Y-101148571D01*
X56315833Y-101100952D01*
X56411071Y-101053333D01*
X56601547Y-101053333D01*
X56696785Y-101100952D01*
X56744404Y-101148571D01*
X56792023Y-101243809D01*
X59395357Y-90242380D02*
X59728690Y-89766190D01*
X59966785Y-90242380D02*
X59966785Y-89242380D01*
X59585833Y-89242380D01*
X59490595Y-89290000D01*
X59442976Y-89337619D01*
X59395357Y-89432857D01*
X59395357Y-89575714D01*
X59442976Y-89670952D01*
X59490595Y-89718571D01*
X59585833Y-89766190D01*
X59966785Y-89766190D01*
X59014404Y-89337619D02*
X58966785Y-89290000D01*
X58871547Y-89242380D01*
X58633452Y-89242380D01*
X58538214Y-89290000D01*
X58490595Y-89337619D01*
X58442976Y-89432857D01*
X58442976Y-89528095D01*
X58490595Y-89670952D01*
X59062023Y-90242380D01*
X58442976Y-90242380D01*
X57538214Y-89242380D02*
X58014404Y-89242380D01*
X58062023Y-89718571D01*
X58014404Y-89670952D01*
X57919166Y-89623333D01*
X57681071Y-89623333D01*
X57585833Y-89670952D01*
X57538214Y-89718571D01*
X57490595Y-89813809D01*
X57490595Y-90051904D01*
X57538214Y-90147142D01*
X57585833Y-90194761D01*
X57681071Y-90242380D01*
X57919166Y-90242380D01*
X58014404Y-90194761D01*
X58062023Y-90147142D01*
X67015357Y-89732380D02*
X67348690Y-89256190D01*
X67586785Y-89732380D02*
X67586785Y-88732380D01*
X67205833Y-88732380D01*
X67110595Y-88780000D01*
X67062976Y-88827619D01*
X67015357Y-88922857D01*
X67015357Y-89065714D01*
X67062976Y-89160952D01*
X67110595Y-89208571D01*
X67205833Y-89256190D01*
X67586785Y-89256190D01*
X66634404Y-88827619D02*
X66586785Y-88780000D01*
X66491547Y-88732380D01*
X66253452Y-88732380D01*
X66158214Y-88780000D01*
X66110595Y-88827619D01*
X66062976Y-88922857D01*
X66062976Y-89018095D01*
X66110595Y-89160952D01*
X66682023Y-89732380D01*
X66062976Y-89732380D01*
X65205833Y-89065714D02*
X65205833Y-89732380D01*
X65443928Y-88684761D02*
X65682023Y-89399047D01*
X65062976Y-89399047D01*
X67015357Y-82112380D02*
X67348690Y-81636190D01*
X67586785Y-82112380D02*
X67586785Y-81112380D01*
X67205833Y-81112380D01*
X67110595Y-81160000D01*
X67062976Y-81207619D01*
X67015357Y-81302857D01*
X67015357Y-81445714D01*
X67062976Y-81540952D01*
X67110595Y-81588571D01*
X67205833Y-81636190D01*
X67586785Y-81636190D01*
X66634404Y-81207619D02*
X66586785Y-81160000D01*
X66491547Y-81112380D01*
X66253452Y-81112380D01*
X66158214Y-81160000D01*
X66110595Y-81207619D01*
X66062976Y-81302857D01*
X66062976Y-81398095D01*
X66110595Y-81540952D01*
X66682023Y-82112380D01*
X66062976Y-82112380D01*
X65729642Y-81112380D02*
X65110595Y-81112380D01*
X65443928Y-81493333D01*
X65301071Y-81493333D01*
X65205833Y-81540952D01*
X65158214Y-81588571D01*
X65110595Y-81683809D01*
X65110595Y-81921904D01*
X65158214Y-82017142D01*
X65205833Y-82064761D01*
X65301071Y-82112380D01*
X65586785Y-82112380D01*
X65682023Y-82064761D01*
X65729642Y-82017142D01*
X67015357Y-74492380D02*
X67348690Y-74016190D01*
X67586785Y-74492380D02*
X67586785Y-73492380D01*
X67205833Y-73492380D01*
X67110595Y-73540000D01*
X67062976Y-73587619D01*
X67015357Y-73682857D01*
X67015357Y-73825714D01*
X67062976Y-73920952D01*
X67110595Y-73968571D01*
X67205833Y-74016190D01*
X67586785Y-74016190D01*
X66634404Y-73587619D02*
X66586785Y-73540000D01*
X66491547Y-73492380D01*
X66253452Y-73492380D01*
X66158214Y-73540000D01*
X66110595Y-73587619D01*
X66062976Y-73682857D01*
X66062976Y-73778095D01*
X66110595Y-73920952D01*
X66682023Y-74492380D01*
X66062976Y-74492380D01*
X65682023Y-73587619D02*
X65634404Y-73540000D01*
X65539166Y-73492380D01*
X65301071Y-73492380D01*
X65205833Y-73540000D01*
X65158214Y-73587619D01*
X65110595Y-73682857D01*
X65110595Y-73778095D01*
X65158214Y-73920952D01*
X65729642Y-74492380D01*
X65110595Y-74492380D01*
X67015357Y-66872380D02*
X67348690Y-66396190D01*
X67586785Y-66872380D02*
X67586785Y-65872380D01*
X67205833Y-65872380D01*
X67110595Y-65920000D01*
X67062976Y-65967619D01*
X67015357Y-66062857D01*
X67015357Y-66205714D01*
X67062976Y-66300952D01*
X67110595Y-66348571D01*
X67205833Y-66396190D01*
X67586785Y-66396190D01*
X66634404Y-65967619D02*
X66586785Y-65920000D01*
X66491547Y-65872380D01*
X66253452Y-65872380D01*
X66158214Y-65920000D01*
X66110595Y-65967619D01*
X66062976Y-66062857D01*
X66062976Y-66158095D01*
X66110595Y-66300952D01*
X66682023Y-66872380D01*
X66062976Y-66872380D01*
X65110595Y-66872380D02*
X65682023Y-66872380D01*
X65396309Y-66872380D02*
X65396309Y-65872380D01*
X65491547Y-66015238D01*
X65586785Y-66110476D01*
X65682023Y-66158095D01*
X59395357Y-82622380D02*
X59728690Y-82146190D01*
X59966785Y-82622380D02*
X59966785Y-81622380D01*
X59585833Y-81622380D01*
X59490595Y-81670000D01*
X59442976Y-81717619D01*
X59395357Y-81812857D01*
X59395357Y-81955714D01*
X59442976Y-82050952D01*
X59490595Y-82098571D01*
X59585833Y-82146190D01*
X59966785Y-82146190D01*
X59014404Y-81717619D02*
X58966785Y-81670000D01*
X58871547Y-81622380D01*
X58633452Y-81622380D01*
X58538214Y-81670000D01*
X58490595Y-81717619D01*
X58442976Y-81812857D01*
X58442976Y-81908095D01*
X58490595Y-82050952D01*
X59062023Y-82622380D01*
X58442976Y-82622380D01*
X57823928Y-81622380D02*
X57728690Y-81622380D01*
X57633452Y-81670000D01*
X57585833Y-81717619D01*
X57538214Y-81812857D01*
X57490595Y-82003333D01*
X57490595Y-82241428D01*
X57538214Y-82431904D01*
X57585833Y-82527142D01*
X57633452Y-82574761D01*
X57728690Y-82622380D01*
X57823928Y-82622380D01*
X57919166Y-82574761D01*
X57966785Y-82527142D01*
X58014404Y-82431904D01*
X58062023Y-82241428D01*
X58062023Y-82003333D01*
X58014404Y-81812857D01*
X57966785Y-81717619D01*
X57919166Y-81670000D01*
X57823928Y-81622380D01*
X59395357Y-75002380D02*
X59728690Y-74526190D01*
X59966785Y-75002380D02*
X59966785Y-74002380D01*
X59585833Y-74002380D01*
X59490595Y-74050000D01*
X59442976Y-74097619D01*
X59395357Y-74192857D01*
X59395357Y-74335714D01*
X59442976Y-74430952D01*
X59490595Y-74478571D01*
X59585833Y-74526190D01*
X59966785Y-74526190D01*
X58442976Y-75002380D02*
X59014404Y-75002380D01*
X58728690Y-75002380D02*
X58728690Y-74002380D01*
X58823928Y-74145238D01*
X58919166Y-74240476D01*
X59014404Y-74288095D01*
X57966785Y-75002380D02*
X57776309Y-75002380D01*
X57681071Y-74954761D01*
X57633452Y-74907142D01*
X57538214Y-74764285D01*
X57490595Y-74573809D01*
X57490595Y-74192857D01*
X57538214Y-74097619D01*
X57585833Y-74050000D01*
X57681071Y-74002380D01*
X57871547Y-74002380D01*
X57966785Y-74050000D01*
X58014404Y-74097619D01*
X58062023Y-74192857D01*
X58062023Y-74430952D01*
X58014404Y-74526190D01*
X57966785Y-74573809D01*
X57871547Y-74621428D01*
X57681071Y-74621428D01*
X57585833Y-74573809D01*
X57538214Y-74526190D01*
X57490595Y-74430952D01*
X59395357Y-67382380D02*
X59728690Y-66906190D01*
X59966785Y-67382380D02*
X59966785Y-66382380D01*
X59585833Y-66382380D01*
X59490595Y-66430000D01*
X59442976Y-66477619D01*
X59395357Y-66572857D01*
X59395357Y-66715714D01*
X59442976Y-66810952D01*
X59490595Y-66858571D01*
X59585833Y-66906190D01*
X59966785Y-66906190D01*
X58442976Y-67382380D02*
X59014404Y-67382380D01*
X58728690Y-67382380D02*
X58728690Y-66382380D01*
X58823928Y-66525238D01*
X58919166Y-66620476D01*
X59014404Y-66668095D01*
X57871547Y-66810952D02*
X57966785Y-66763333D01*
X58014404Y-66715714D01*
X58062023Y-66620476D01*
X58062023Y-66572857D01*
X58014404Y-66477619D01*
X57966785Y-66430000D01*
X57871547Y-66382380D01*
X57681071Y-66382380D01*
X57585833Y-66430000D01*
X57538214Y-66477619D01*
X57490595Y-66572857D01*
X57490595Y-66620476D01*
X57538214Y-66715714D01*
X57585833Y-66763333D01*
X57681071Y-66810952D01*
X57871547Y-66810952D01*
X57966785Y-66858571D01*
X58014404Y-66906190D01*
X58062023Y-67001428D01*
X58062023Y-67191904D01*
X58014404Y-67287142D01*
X57966785Y-67334761D01*
X57871547Y-67382380D01*
X57681071Y-67382380D01*
X57585833Y-67334761D01*
X57538214Y-67287142D01*
X57490595Y-67191904D01*
X57490595Y-67001428D01*
X57538214Y-66906190D01*
X57585833Y-66858571D01*
X57681071Y-66810952D01*
X59395357Y-59762380D02*
X59728690Y-59286190D01*
X59966785Y-59762380D02*
X59966785Y-58762380D01*
X59585833Y-58762380D01*
X59490595Y-58810000D01*
X59442976Y-58857619D01*
X59395357Y-58952857D01*
X59395357Y-59095714D01*
X59442976Y-59190952D01*
X59490595Y-59238571D01*
X59585833Y-59286190D01*
X59966785Y-59286190D01*
X58442976Y-59762380D02*
X59014404Y-59762380D01*
X58728690Y-59762380D02*
X58728690Y-58762380D01*
X58823928Y-58905238D01*
X58919166Y-59000476D01*
X59014404Y-59048095D01*
X58109642Y-58762380D02*
X57442976Y-58762380D01*
X57871547Y-59762380D01*
X91637380Y-152392142D02*
X91161190Y-152058809D01*
X91637380Y-151820714D02*
X90637380Y-151820714D01*
X90637380Y-152201666D01*
X90685000Y-152296904D01*
X90732619Y-152344523D01*
X90827857Y-152392142D01*
X90970714Y-152392142D01*
X91065952Y-152344523D01*
X91113571Y-152296904D01*
X91161190Y-152201666D01*
X91161190Y-151820714D01*
X91637380Y-153344523D02*
X91637380Y-152773095D01*
X91637380Y-153058809D02*
X90637380Y-153058809D01*
X90780238Y-152963571D01*
X90875476Y-152868333D01*
X90923095Y-152773095D01*
X90637380Y-154201666D02*
X90637380Y-154011190D01*
X90685000Y-153915952D01*
X90732619Y-153868333D01*
X90875476Y-153773095D01*
X91065952Y-153725476D01*
X91446904Y-153725476D01*
X91542142Y-153773095D01*
X91589761Y-153820714D01*
X91637380Y-153915952D01*
X91637380Y-154106428D01*
X91589761Y-154201666D01*
X91542142Y-154249285D01*
X91446904Y-154296904D01*
X91208809Y-154296904D01*
X91113571Y-154249285D01*
X91065952Y-154201666D01*
X91018333Y-154106428D01*
X91018333Y-153915952D01*
X91065952Y-153820714D01*
X91113571Y-153773095D01*
X91208809Y-153725476D01*
X91637380Y-139692142D02*
X91161190Y-139358809D01*
X91637380Y-139120714D02*
X90637380Y-139120714D01*
X90637380Y-139501666D01*
X90685000Y-139596904D01*
X90732619Y-139644523D01*
X90827857Y-139692142D01*
X90970714Y-139692142D01*
X91065952Y-139644523D01*
X91113571Y-139596904D01*
X91161190Y-139501666D01*
X91161190Y-139120714D01*
X91637380Y-140644523D02*
X91637380Y-140073095D01*
X91637380Y-140358809D02*
X90637380Y-140358809D01*
X90780238Y-140263571D01*
X90875476Y-140168333D01*
X90923095Y-140073095D01*
X90637380Y-141549285D02*
X90637380Y-141073095D01*
X91113571Y-141025476D01*
X91065952Y-141073095D01*
X91018333Y-141168333D01*
X91018333Y-141406428D01*
X91065952Y-141501666D01*
X91113571Y-141549285D01*
X91208809Y-141596904D01*
X91446904Y-141596904D01*
X91542142Y-141549285D01*
X91589761Y-141501666D01*
X91637380Y-141406428D01*
X91637380Y-141168333D01*
X91589761Y-141073095D01*
X91542142Y-141025476D01*
X91637380Y-126992142D02*
X91161190Y-126658809D01*
X91637380Y-126420714D02*
X90637380Y-126420714D01*
X90637380Y-126801666D01*
X90685000Y-126896904D01*
X90732619Y-126944523D01*
X90827857Y-126992142D01*
X90970714Y-126992142D01*
X91065952Y-126944523D01*
X91113571Y-126896904D01*
X91161190Y-126801666D01*
X91161190Y-126420714D01*
X91637380Y-127944523D02*
X91637380Y-127373095D01*
X91637380Y-127658809D02*
X90637380Y-127658809D01*
X90780238Y-127563571D01*
X90875476Y-127468333D01*
X90923095Y-127373095D01*
X90970714Y-128801666D02*
X91637380Y-128801666D01*
X90589761Y-128563571D02*
X91304047Y-128325476D01*
X91304047Y-128944523D01*
X100005357Y-156407380D02*
X100338690Y-155931190D01*
X100576785Y-156407380D02*
X100576785Y-155407380D01*
X100195833Y-155407380D01*
X100100595Y-155455000D01*
X100052976Y-155502619D01*
X100005357Y-155597857D01*
X100005357Y-155740714D01*
X100052976Y-155835952D01*
X100100595Y-155883571D01*
X100195833Y-155931190D01*
X100576785Y-155931190D01*
X99052976Y-156407380D02*
X99624404Y-156407380D01*
X99338690Y-156407380D02*
X99338690Y-155407380D01*
X99433928Y-155550238D01*
X99529166Y-155645476D01*
X99624404Y-155693095D01*
X98719642Y-155407380D02*
X98100595Y-155407380D01*
X98433928Y-155788333D01*
X98291071Y-155788333D01*
X98195833Y-155835952D01*
X98148214Y-155883571D01*
X98100595Y-155978809D01*
X98100595Y-156216904D01*
X98148214Y-156312142D01*
X98195833Y-156359761D01*
X98291071Y-156407380D01*
X98576785Y-156407380D01*
X98672023Y-156359761D01*
X98719642Y-156312142D01*
X100005357Y-143707380D02*
X100338690Y-143231190D01*
X100576785Y-143707380D02*
X100576785Y-142707380D01*
X100195833Y-142707380D01*
X100100595Y-142755000D01*
X100052976Y-142802619D01*
X100005357Y-142897857D01*
X100005357Y-143040714D01*
X100052976Y-143135952D01*
X100100595Y-143183571D01*
X100195833Y-143231190D01*
X100576785Y-143231190D01*
X99052976Y-143707380D02*
X99624404Y-143707380D01*
X99338690Y-143707380D02*
X99338690Y-142707380D01*
X99433928Y-142850238D01*
X99529166Y-142945476D01*
X99624404Y-142993095D01*
X98672023Y-142802619D02*
X98624404Y-142755000D01*
X98529166Y-142707380D01*
X98291071Y-142707380D01*
X98195833Y-142755000D01*
X98148214Y-142802619D01*
X98100595Y-142897857D01*
X98100595Y-142993095D01*
X98148214Y-143135952D01*
X98719642Y-143707380D01*
X98100595Y-143707380D01*
X100005357Y-131007380D02*
X100338690Y-130531190D01*
X100576785Y-131007380D02*
X100576785Y-130007380D01*
X100195833Y-130007380D01*
X100100595Y-130055000D01*
X100052976Y-130102619D01*
X100005357Y-130197857D01*
X100005357Y-130340714D01*
X100052976Y-130435952D01*
X100100595Y-130483571D01*
X100195833Y-130531190D01*
X100576785Y-130531190D01*
X99052976Y-131007380D02*
X99624404Y-131007380D01*
X99338690Y-131007380D02*
X99338690Y-130007380D01*
X99433928Y-130150238D01*
X99529166Y-130245476D01*
X99624404Y-130293095D01*
X98100595Y-131007380D02*
X98672023Y-131007380D01*
X98386309Y-131007380D02*
X98386309Y-130007380D01*
X98481547Y-130150238D01*
X98576785Y-130245476D01*
X98672023Y-130293095D01*
X91637380Y-114292142D02*
X91161190Y-113958809D01*
X91637380Y-113720714D02*
X90637380Y-113720714D01*
X90637380Y-114101666D01*
X90685000Y-114196904D01*
X90732619Y-114244523D01*
X90827857Y-114292142D01*
X90970714Y-114292142D01*
X91065952Y-114244523D01*
X91113571Y-114196904D01*
X91161190Y-114101666D01*
X91161190Y-113720714D01*
X91637380Y-115244523D02*
X91637380Y-114673095D01*
X91637380Y-114958809D02*
X90637380Y-114958809D01*
X90780238Y-114863571D01*
X90875476Y-114768333D01*
X90923095Y-114673095D01*
X90637380Y-115863571D02*
X90637380Y-115958809D01*
X90685000Y-116054047D01*
X90732619Y-116101666D01*
X90827857Y-116149285D01*
X91018333Y-116196904D01*
X91256428Y-116196904D01*
X91446904Y-116149285D01*
X91542142Y-116101666D01*
X91589761Y-116054047D01*
X91637380Y-115958809D01*
X91637380Y-115863571D01*
X91589761Y-115768333D01*
X91542142Y-115720714D01*
X91446904Y-115673095D01*
X91256428Y-115625476D01*
X91018333Y-115625476D01*
X90827857Y-115673095D01*
X90732619Y-115720714D01*
X90685000Y-115768333D01*
X90637380Y-115863571D01*
X91637380Y-102068333D02*
X91161190Y-101735000D01*
X91637380Y-101496904D02*
X90637380Y-101496904D01*
X90637380Y-101877857D01*
X90685000Y-101973095D01*
X90732619Y-102020714D01*
X90827857Y-102068333D01*
X90970714Y-102068333D01*
X91065952Y-102020714D01*
X91113571Y-101973095D01*
X91161190Y-101877857D01*
X91161190Y-101496904D01*
X91637380Y-102544523D02*
X91637380Y-102735000D01*
X91589761Y-102830238D01*
X91542142Y-102877857D01*
X91399285Y-102973095D01*
X91208809Y-103020714D01*
X90827857Y-103020714D01*
X90732619Y-102973095D01*
X90685000Y-102925476D01*
X90637380Y-102830238D01*
X90637380Y-102639761D01*
X90685000Y-102544523D01*
X90732619Y-102496904D01*
X90827857Y-102449285D01*
X91065952Y-102449285D01*
X91161190Y-102496904D01*
X91208809Y-102544523D01*
X91256428Y-102639761D01*
X91256428Y-102830238D01*
X91208809Y-102925476D01*
X91161190Y-102973095D01*
X91065952Y-103020714D01*
X91637380Y-89368333D02*
X91161190Y-89035000D01*
X91637380Y-88796904D02*
X90637380Y-88796904D01*
X90637380Y-89177857D01*
X90685000Y-89273095D01*
X90732619Y-89320714D01*
X90827857Y-89368333D01*
X90970714Y-89368333D01*
X91065952Y-89320714D01*
X91113571Y-89273095D01*
X91161190Y-89177857D01*
X91161190Y-88796904D01*
X91065952Y-89939761D02*
X91018333Y-89844523D01*
X90970714Y-89796904D01*
X90875476Y-89749285D01*
X90827857Y-89749285D01*
X90732619Y-89796904D01*
X90685000Y-89844523D01*
X90637380Y-89939761D01*
X90637380Y-90130238D01*
X90685000Y-90225476D01*
X90732619Y-90273095D01*
X90827857Y-90320714D01*
X90875476Y-90320714D01*
X90970714Y-90273095D01*
X91018333Y-90225476D01*
X91065952Y-90130238D01*
X91065952Y-89939761D01*
X91113571Y-89844523D01*
X91161190Y-89796904D01*
X91256428Y-89749285D01*
X91446904Y-89749285D01*
X91542142Y-89796904D01*
X91589761Y-89844523D01*
X91637380Y-89939761D01*
X91637380Y-90130238D01*
X91589761Y-90225476D01*
X91542142Y-90273095D01*
X91446904Y-90320714D01*
X91256428Y-90320714D01*
X91161190Y-90273095D01*
X91113571Y-90225476D01*
X91065952Y-90130238D01*
X91637380Y-76668333D02*
X91161190Y-76335000D01*
X91637380Y-76096904D02*
X90637380Y-76096904D01*
X90637380Y-76477857D01*
X90685000Y-76573095D01*
X90732619Y-76620714D01*
X90827857Y-76668333D01*
X90970714Y-76668333D01*
X91065952Y-76620714D01*
X91113571Y-76573095D01*
X91161190Y-76477857D01*
X91161190Y-76096904D01*
X90637380Y-77001666D02*
X90637380Y-77668333D01*
X91637380Y-77239761D01*
X91637380Y-63968333D02*
X91161190Y-63635000D01*
X91637380Y-63396904D02*
X90637380Y-63396904D01*
X90637380Y-63777857D01*
X90685000Y-63873095D01*
X90732619Y-63920714D01*
X90827857Y-63968333D01*
X90970714Y-63968333D01*
X91065952Y-63920714D01*
X91113571Y-63873095D01*
X91161190Y-63777857D01*
X91161190Y-63396904D01*
X90637380Y-64825476D02*
X90637380Y-64635000D01*
X90685000Y-64539761D01*
X90732619Y-64492142D01*
X90875476Y-64396904D01*
X91065952Y-64349285D01*
X91446904Y-64349285D01*
X91542142Y-64396904D01*
X91589761Y-64444523D01*
X91637380Y-64539761D01*
X91637380Y-64730238D01*
X91589761Y-64825476D01*
X91542142Y-64873095D01*
X91446904Y-64920714D01*
X91208809Y-64920714D01*
X91113571Y-64873095D01*
X91065952Y-64825476D01*
X91018333Y-64730238D01*
X91018333Y-64539761D01*
X91065952Y-64444523D01*
X91113571Y-64396904D01*
X91208809Y-64349285D01*
X99529166Y-118307380D02*
X99862500Y-117831190D01*
X100100595Y-118307380D02*
X100100595Y-117307380D01*
X99719642Y-117307380D01*
X99624404Y-117355000D01*
X99576785Y-117402619D01*
X99529166Y-117497857D01*
X99529166Y-117640714D01*
X99576785Y-117735952D01*
X99624404Y-117783571D01*
X99719642Y-117831190D01*
X100100595Y-117831190D01*
X98624404Y-117307380D02*
X99100595Y-117307380D01*
X99148214Y-117783571D01*
X99100595Y-117735952D01*
X99005357Y-117688333D01*
X98767261Y-117688333D01*
X98672023Y-117735952D01*
X98624404Y-117783571D01*
X98576785Y-117878809D01*
X98576785Y-118116904D01*
X98624404Y-118212142D01*
X98672023Y-118259761D01*
X98767261Y-118307380D01*
X99005357Y-118307380D01*
X99100595Y-118259761D01*
X99148214Y-118212142D01*
X99529166Y-105607380D02*
X99862500Y-105131190D01*
X100100595Y-105607380D02*
X100100595Y-104607380D01*
X99719642Y-104607380D01*
X99624404Y-104655000D01*
X99576785Y-104702619D01*
X99529166Y-104797857D01*
X99529166Y-104940714D01*
X99576785Y-105035952D01*
X99624404Y-105083571D01*
X99719642Y-105131190D01*
X100100595Y-105131190D01*
X98672023Y-104940714D02*
X98672023Y-105607380D01*
X98910119Y-104559761D02*
X99148214Y-105274047D01*
X98529166Y-105274047D01*
X99529166Y-92907380D02*
X99862500Y-92431190D01*
X100100595Y-92907380D02*
X100100595Y-91907380D01*
X99719642Y-91907380D01*
X99624404Y-91955000D01*
X99576785Y-92002619D01*
X99529166Y-92097857D01*
X99529166Y-92240714D01*
X99576785Y-92335952D01*
X99624404Y-92383571D01*
X99719642Y-92431190D01*
X100100595Y-92431190D01*
X99195833Y-91907380D02*
X98576785Y-91907380D01*
X98910119Y-92288333D01*
X98767261Y-92288333D01*
X98672023Y-92335952D01*
X98624404Y-92383571D01*
X98576785Y-92478809D01*
X98576785Y-92716904D01*
X98624404Y-92812142D01*
X98672023Y-92859761D01*
X98767261Y-92907380D01*
X99052976Y-92907380D01*
X99148214Y-92859761D01*
X99195833Y-92812142D01*
X99529166Y-80207380D02*
X99862500Y-79731190D01*
X100100595Y-80207380D02*
X100100595Y-79207380D01*
X99719642Y-79207380D01*
X99624404Y-79255000D01*
X99576785Y-79302619D01*
X99529166Y-79397857D01*
X99529166Y-79540714D01*
X99576785Y-79635952D01*
X99624404Y-79683571D01*
X99719642Y-79731190D01*
X100100595Y-79731190D01*
X99148214Y-79302619D02*
X99100595Y-79255000D01*
X99005357Y-79207380D01*
X98767261Y-79207380D01*
X98672023Y-79255000D01*
X98624404Y-79302619D01*
X98576785Y-79397857D01*
X98576785Y-79493095D01*
X98624404Y-79635952D01*
X99195833Y-80207380D01*
X98576785Y-80207380D01*
X99529166Y-67507380D02*
X99862500Y-67031190D01*
X100100595Y-67507380D02*
X100100595Y-66507380D01*
X99719642Y-66507380D01*
X99624404Y-66555000D01*
X99576785Y-66602619D01*
X99529166Y-66697857D01*
X99529166Y-66840714D01*
X99576785Y-66935952D01*
X99624404Y-66983571D01*
X99719642Y-67031190D01*
X100100595Y-67031190D01*
X98576785Y-67507380D02*
X99148214Y-67507380D01*
X98862500Y-67507380D02*
X98862500Y-66507380D01*
X98957738Y-66650238D01*
X99052976Y-66745476D01*
X99148214Y-66793095D01*
X90639166Y-158852142D02*
X90686785Y-158899761D01*
X90829642Y-158947380D01*
X90924880Y-158947380D01*
X91067738Y-158899761D01*
X91162976Y-158804523D01*
X91210595Y-158709285D01*
X91258214Y-158518809D01*
X91258214Y-158375952D01*
X91210595Y-158185476D01*
X91162976Y-158090238D01*
X91067738Y-157995000D01*
X90924880Y-157947380D01*
X90829642Y-157947380D01*
X90686785Y-157995000D01*
X90639166Y-158042619D01*
X90067738Y-158375952D02*
X90162976Y-158328333D01*
X90210595Y-158280714D01*
X90258214Y-158185476D01*
X90258214Y-158137857D01*
X90210595Y-158042619D01*
X90162976Y-157995000D01*
X90067738Y-157947380D01*
X89877261Y-157947380D01*
X89782023Y-157995000D01*
X89734404Y-158042619D01*
X89686785Y-158137857D01*
X89686785Y-158185476D01*
X89734404Y-158280714D01*
X89782023Y-158328333D01*
X89877261Y-158375952D01*
X90067738Y-158375952D01*
X90162976Y-158423571D01*
X90210595Y-158471190D01*
X90258214Y-158566428D01*
X90258214Y-158756904D01*
X90210595Y-158852142D01*
X90162976Y-158899761D01*
X90067738Y-158947380D01*
X89877261Y-158947380D01*
X89782023Y-158899761D01*
X89734404Y-158852142D01*
X89686785Y-158756904D01*
X89686785Y-158566428D01*
X89734404Y-158471190D01*
X89782023Y-158423571D01*
X89877261Y-158375952D01*
X90639166Y-146152142D02*
X90686785Y-146199761D01*
X90829642Y-146247380D01*
X90924880Y-146247380D01*
X91067738Y-146199761D01*
X91162976Y-146104523D01*
X91210595Y-146009285D01*
X91258214Y-145818809D01*
X91258214Y-145675952D01*
X91210595Y-145485476D01*
X91162976Y-145390238D01*
X91067738Y-145295000D01*
X90924880Y-145247380D01*
X90829642Y-145247380D01*
X90686785Y-145295000D01*
X90639166Y-145342619D01*
X90305833Y-145247380D02*
X89639166Y-145247380D01*
X90067738Y-146247380D01*
X90639166Y-133452142D02*
X90686785Y-133499761D01*
X90829642Y-133547380D01*
X90924880Y-133547380D01*
X91067738Y-133499761D01*
X91162976Y-133404523D01*
X91210595Y-133309285D01*
X91258214Y-133118809D01*
X91258214Y-132975952D01*
X91210595Y-132785476D01*
X91162976Y-132690238D01*
X91067738Y-132595000D01*
X90924880Y-132547380D01*
X90829642Y-132547380D01*
X90686785Y-132595000D01*
X90639166Y-132642619D01*
X89782023Y-132547380D02*
X89972500Y-132547380D01*
X90067738Y-132595000D01*
X90115357Y-132642619D01*
X90210595Y-132785476D01*
X90258214Y-132975952D01*
X90258214Y-133356904D01*
X90210595Y-133452142D01*
X90162976Y-133499761D01*
X90067738Y-133547380D01*
X89877261Y-133547380D01*
X89782023Y-133499761D01*
X89734404Y-133452142D01*
X89686785Y-133356904D01*
X89686785Y-133118809D01*
X89734404Y-133023571D01*
X89782023Y-132975952D01*
X89877261Y-132928333D01*
X90067738Y-132928333D01*
X90162976Y-132975952D01*
X90210595Y-133023571D01*
X90258214Y-133118809D01*
X90639166Y-120752142D02*
X90686785Y-120799761D01*
X90829642Y-120847380D01*
X90924880Y-120847380D01*
X91067738Y-120799761D01*
X91162976Y-120704523D01*
X91210595Y-120609285D01*
X91258214Y-120418809D01*
X91258214Y-120275952D01*
X91210595Y-120085476D01*
X91162976Y-119990238D01*
X91067738Y-119895000D01*
X90924880Y-119847380D01*
X90829642Y-119847380D01*
X90686785Y-119895000D01*
X90639166Y-119942619D01*
X89734404Y-119847380D02*
X90210595Y-119847380D01*
X90258214Y-120323571D01*
X90210595Y-120275952D01*
X90115357Y-120228333D01*
X89877261Y-120228333D01*
X89782023Y-120275952D01*
X89734404Y-120323571D01*
X89686785Y-120418809D01*
X89686785Y-120656904D01*
X89734404Y-120752142D01*
X89782023Y-120799761D01*
X89877261Y-120847380D01*
X90115357Y-120847380D01*
X90210595Y-120799761D01*
X90258214Y-120752142D01*
X90639166Y-108052142D02*
X90686785Y-108099761D01*
X90829642Y-108147380D01*
X90924880Y-108147380D01*
X91067738Y-108099761D01*
X91162976Y-108004523D01*
X91210595Y-107909285D01*
X91258214Y-107718809D01*
X91258214Y-107575952D01*
X91210595Y-107385476D01*
X91162976Y-107290238D01*
X91067738Y-107195000D01*
X90924880Y-107147380D01*
X90829642Y-107147380D01*
X90686785Y-107195000D01*
X90639166Y-107242619D01*
X89782023Y-107480714D02*
X89782023Y-108147380D01*
X90020119Y-107099761D02*
X90258214Y-107814047D01*
X89639166Y-107814047D01*
X90639166Y-95352142D02*
X90686785Y-95399761D01*
X90829642Y-95447380D01*
X90924880Y-95447380D01*
X91067738Y-95399761D01*
X91162976Y-95304523D01*
X91210595Y-95209285D01*
X91258214Y-95018809D01*
X91258214Y-94875952D01*
X91210595Y-94685476D01*
X91162976Y-94590238D01*
X91067738Y-94495000D01*
X90924880Y-94447380D01*
X90829642Y-94447380D01*
X90686785Y-94495000D01*
X90639166Y-94542619D01*
X90305833Y-94447380D02*
X89686785Y-94447380D01*
X90020119Y-94828333D01*
X89877261Y-94828333D01*
X89782023Y-94875952D01*
X89734404Y-94923571D01*
X89686785Y-95018809D01*
X89686785Y-95256904D01*
X89734404Y-95352142D01*
X89782023Y-95399761D01*
X89877261Y-95447380D01*
X90162976Y-95447380D01*
X90258214Y-95399761D01*
X90305833Y-95352142D01*
X90639166Y-82652142D02*
X90686785Y-82699761D01*
X90829642Y-82747380D01*
X90924880Y-82747380D01*
X91067738Y-82699761D01*
X91162976Y-82604523D01*
X91210595Y-82509285D01*
X91258214Y-82318809D01*
X91258214Y-82175952D01*
X91210595Y-81985476D01*
X91162976Y-81890238D01*
X91067738Y-81795000D01*
X90924880Y-81747380D01*
X90829642Y-81747380D01*
X90686785Y-81795000D01*
X90639166Y-81842619D01*
X90258214Y-81842619D02*
X90210595Y-81795000D01*
X90115357Y-81747380D01*
X89877261Y-81747380D01*
X89782023Y-81795000D01*
X89734404Y-81842619D01*
X89686785Y-81937857D01*
X89686785Y-82033095D01*
X89734404Y-82175952D01*
X90305833Y-82747380D01*
X89686785Y-82747380D01*
X90639166Y-69952142D02*
X90686785Y-69999761D01*
X90829642Y-70047380D01*
X90924880Y-70047380D01*
X91067738Y-69999761D01*
X91162976Y-69904523D01*
X91210595Y-69809285D01*
X91258214Y-69618809D01*
X91258214Y-69475952D01*
X91210595Y-69285476D01*
X91162976Y-69190238D01*
X91067738Y-69095000D01*
X90924880Y-69047380D01*
X90829642Y-69047380D01*
X90686785Y-69095000D01*
X90639166Y-69142619D01*
X89686785Y-70047380D02*
X90258214Y-70047380D01*
X89972500Y-70047380D02*
X89972500Y-69047380D01*
X90067738Y-69190238D01*
X90162976Y-69285476D01*
X90258214Y-69333095D01*
M02*
