M48
; DRILL file {KiCad (5.1.5)-3} date 02.02.2020 10:20:15
; FORMAT={-:-/ absolute / inch / decimal}
; #@! TF.CreationDate,2020-02-02T10:20:15+01:00
; #@! TF.GenerationSoftware,Kicad,Pcbnew,(5.1.5)-3
; #@! TF.FileFunction,Plated,1,2,PTH
FMAT,2
INCH
T1C0.0157
T2C0.0295
T3C0.0315
T4C0.0335
T5C0.0394
T6C0.0402
T7C0.0551
%
G90
G05
T1
X1.9Y-4.85
X1.95Y-4.45
X1.95Y-4.81
X1.975Y-1.9
X1.975Y-5.7
X2.0Y-4.55
X2.0Y-5.2
X2.05Y-4.65
X2.05Y-5.125
X2.075Y-5.8949
X2.1Y-4.75
X2.125Y-5.55
X2.15Y-1.75
X2.15Y-4.8
X2.2Y-4.95
X2.2Y-5.325
X2.2Y-5.55
X2.225Y-3.975
X2.25Y-5.05
X2.25Y-5.25
X2.3Y-4.9
X2.3124Y-2.45
X2.3124Y-2.75
X2.3124Y-3.05
X2.3124Y-3.35
X2.3124Y-3.65
X2.3124Y-4.25
X2.35Y-1.75
X2.35Y-3.85
X2.35Y-5.2
X2.35Y-4.55
X2.3512Y-5.9
X2.375Y-5.4
X2.425Y-4.75
X2.55Y-1.75
X2.55Y-5.75
X2.7Y-2.55
X2.7Y-2.85
X2.7Y-3.15
X2.7Y-3.45
X2.7Y-3.75
X2.7Y-4.05
X2.7Y-4.35
X2.7Y-4.65
X2.7Y-5.75
X2.75Y-1.75
X2.8012Y-4.85
X2.875Y-2.1369
X2.875Y-5.1262
X2.875Y-5.5
X2.875Y-5.825
X2.925Y-6.425
X2.925Y-6.575
X3.0547Y-6.3248
X3.0547Y-6.4248
X3.0547Y-6.5248
X3.0547Y-6.5748
X3.1Y-2.1369
X3.5374Y-2.475
X3.5374Y-2.675
X3.5374Y-2.975
X3.5374Y-3.175
X3.5374Y-3.475
X3.5374Y-3.675
X3.5374Y-3.975
X3.5374Y-4.175
X3.5374Y-4.475
X3.5374Y-4.675
X3.5374Y-4.975
X3.5374Y-5.175
X3.5374Y-5.475
X3.5374Y-5.675
X3.5374Y-5.975
X3.5374Y-6.175
X3.875Y-2.575
X3.875Y-3.075
X3.875Y-3.575
X3.875Y-4.075
X3.875Y-4.575
X3.875Y-5.075
X3.875Y-5.575
X3.875Y-6.075
T2
X2.875Y-6.0
X2.9537Y-6.0
X2.425Y-5.65
X2.5037Y-5.65
X2.875Y-5.65
X2.9537Y-5.65
X2.3638Y-6.55
X2.4425Y-6.55
X2.5213Y-6.55
X2.6Y-6.55
X2.425Y-5.3
X2.5037Y-5.3
X2.425Y-4.95
X2.5037Y-4.95
X2.425Y-6.0
X2.5037Y-6.0
X2.875Y-4.95
X2.9537Y-4.95
X2.875Y-5.3
X2.9537Y-5.3
T3
X1.9963Y-6.525
X2.075Y-6.525
T4
X3.35Y-4.525
X3.35Y-4.6234
X2.9Y-4.35
X2.9984Y-4.35
X2.9Y-2.85
X2.9984Y-2.85
X3.35Y-2.525
X3.35Y-2.6234
X3.35Y-2.7219
X3.35Y-2.8203
X3.35Y-2.9187
X3.35Y-3.0171
X3.35Y-3.1156
X3.35Y-3.214
X2.9Y-4.65
X2.9984Y-4.65
X3.35Y-3.525
X3.35Y-3.6234
X3.35Y-3.7219
X3.35Y-3.8203
X3.35Y-3.9187
X3.35Y-4.0171
X3.35Y-4.1156
X3.35Y-4.214
X2.9Y-3.15
X2.9984Y-3.15
X3.35Y-4.925
X3.35Y-5.0234
X2.9Y-3.75
X2.9984Y-3.75
X2.9Y-3.45
X2.9984Y-3.45
X2.9Y-4.05
X2.9984Y-4.05
X2.9Y-2.55
X2.9984Y-2.55
X3.35Y-5.325
X3.35Y-5.4234
T5
X1.7Y-1.7
X1.7Y-1.8
X1.7Y-2.8
X1.7Y-2.9
X1.7Y-3.0
X1.7Y-3.1
X1.7Y-3.2
X1.7Y-3.3
X1.7Y-3.4
X1.7Y-3.5
X1.7Y-3.6
X1.7Y-3.7
X1.7Y-3.8
X1.7Y-3.9
X1.7Y-4.0
X1.7Y-4.1
X1.7Y-4.2
X1.7Y-4.3
X1.7Y-4.4
X1.7Y-4.5
X1.7Y-4.6
X1.7Y-4.7
X1.7Y-4.8
X1.7Y-4.9
X1.7Y-5.0
X1.7Y-5.1
X1.7Y-5.2
X1.7Y-5.3
X1.7Y-5.4
X1.7Y-5.5
X1.7Y-5.6
X1.7Y-5.7
X1.7Y-5.8
X1.7Y-5.9
X1.7Y-6.0
X1.7Y-6.1
X1.7Y-6.2
X1.7Y-6.3
X1.8Y-2.8
X1.8Y-2.9
X1.8Y-3.0
X1.8Y-3.1
X1.8Y-3.2
X1.8Y-3.3
X1.8Y-3.4
X1.8Y-3.5
X1.8Y-3.6
X1.8Y-3.7
X1.8Y-3.8
X1.8Y-3.9
X1.8Y-4.0
X1.8Y-4.1
X1.8Y-4.2
X1.8Y-4.3
X1.8Y-4.4
X1.8Y-4.5
X1.8Y-4.6
X1.8Y-4.7
X1.8Y-4.8
X1.8Y-4.9
X1.8Y-5.0
X1.8Y-5.1
X1.8Y-5.2
X1.8Y-5.3
X1.8Y-5.4
X1.8Y-5.5
X1.8Y-5.6
X1.8Y-5.7
X1.8Y-5.8
X1.8Y-5.9
X1.8Y-6.0
X1.8Y-6.1
X1.8Y-6.2
X1.8Y-6.3
X4.1Y-2.8
X4.1Y-2.9
X4.1Y-3.0
X4.1Y-3.1
X4.1Y-3.2
X4.1Y-3.3
X4.1Y-3.4
X4.1Y-3.5
X4.1Y-3.6
X4.1Y-3.7
X4.1Y-3.8
X4.1Y-3.9
X4.1Y-4.0
X4.1Y-4.1
X4.1Y-4.2
X4.1Y-4.3
X4.1Y-4.4
X4.1Y-4.5
X4.1Y-4.6
X4.1Y-4.7
X4.1Y-4.8
X4.1Y-4.9
X4.1Y-5.0
X4.1Y-5.1
X4.1Y-5.2
X4.1Y-5.3
X4.1Y-5.4
X4.1Y-5.5
X4.1Y-5.6
X4.1Y-5.7
X4.1Y-5.8
X4.1Y-5.9
X4.1Y-6.0
X4.1Y-6.1
X4.1Y-6.2
X4.1Y-6.3
X4.2Y-1.7
X4.2Y-1.8
X4.2Y-2.8
X4.2Y-2.9
X4.2Y-3.0
X4.2Y-3.1
X4.2Y-3.2
X4.2Y-3.3
X4.2Y-3.4
X4.2Y-3.5
X4.2Y-3.6
X4.2Y-3.7
X4.2Y-3.8
X4.2Y-3.9
X4.2Y-4.0
X4.2Y-4.1
X4.2Y-4.2
X4.2Y-4.3
X4.2Y-4.4
X4.2Y-4.5
X4.2Y-4.6
X4.2Y-4.7
X4.2Y-4.8
X4.2Y-4.9
X4.2Y-5.0
X4.2Y-5.1
X4.2Y-5.2
X4.2Y-5.3
X4.2Y-5.4
X4.2Y-5.5
X4.2Y-5.6
X4.2Y-5.7
X4.2Y-5.8
X4.2Y-5.9
X4.2Y-6.0
X4.2Y-6.1
X4.2Y-6.2
X4.2Y-6.3
T6
X2.55Y-2.1
X2.6681Y-2.1
T7
X3.275Y-2.1
X3.4915Y-2.1
T0
M30
